HIERARCHY
ROOT Hips
{
  OFFSET 13.6774 106.653 -34.4427
  CHANNELS 6 Xposition Yposition Zposition Zrotation Xrotation Yrotation
  JOINT ToSpine
  {
    OFFSET -2.69724 7.43032 -0.144315
    CHANNELS 3 Zrotation Xrotation Yrotation
    JOINT Spine
    {
      OFFSET -0.0310711 10.7595 1.96963
      CHANNELS 3 Zrotation Xrotation Yrotation
      JOINT Spine1
      {
        OFFSET 19.9056 3.91189 0.764692
        CHANNELS 3 Zrotation Xrotation Yrotation
        JOINT Neck
        {
          OFFSET 25.9749 7.03908 -0.130764
          CHANNELS 3 Zrotation Xrotation Yrotation
          JOINT Head
          {
            OFFSET 9.52751 0.295786 -0.907742
            CHANNELS 3 Zrotation Xrotation Yrotation
            End Site
            {
              OFFSET 16.4037 0.713936 2.7358
            }
          }
        }
        JOINT LeftShoulder
        {
          OFFSET 17.7449 4.33886 11.7777
          CHANNELS 3 Zrotation Xrotation Yrotation
          JOINT LeftArm
          {
            OFFSET 0.911315 1.27913 9.80584
            CHANNELS 3 Zrotation Xrotation Yrotation
            JOINT LeftForeArm
            {
              OFFSET 28.6126 1.18197 -3.53199
              CHANNELS 3 Zrotation Xrotation Yrotation
              JOINT LeftHand
              {
                OFFSET 27.5088 0.0218783 0.327423
                CHANNELS 3 Zrotation Xrotation Yrotation
                End Site
                {
                  OFFSET 18.6038 -0.000155887 0.382096
                }
              }
            }
          }
        }
        JOINT RightShoulder
        {
          OFFSET 17.1009 2.89543 -12.2328
          CHANNELS 3 Zrotation Xrotation Yrotation
          JOINT RightArm
          {
            OFFSET 1.4228 0.178766 -10.211
            CHANNELS 3 Zrotation Xrotation Yrotation
            JOINT RightForeArm
            {
              OFFSET 28.733 1.87905 2.64907
              CHANNELS 3 Zrotation Xrotation Yrotation
              JOINT RightHand
              {
                OFFSET 27.4588 0.290562 -0.101845
                CHANNELS 3 Zrotation Xrotation Yrotation
                End Site
                {
                  OFFSET 17.8396 -0.255518 -0.000602873
                }
              }
            }
          }
        }
      }
    }
  }
  JOINT LeftUpLeg
  {
    OFFSET -5.61296 -2.22332 -10.2353
    CHANNELS 3 Zrotation Xrotation Yrotation
    JOINT LeftLeg
    {
      OFFSET 2.56703 -44.7417 -7.93097
      CHANNELS 3 Zrotation Xrotation Yrotation
      JOINT LeftFoot
      {
        OFFSET 3.16933 -46.5642 -3.96578
        CHANNELS 3 Zrotation Xrotation Yrotation
        JOINT LeftToeBase
        {
          OFFSET 0.346054 -6.02161 12.8035
          CHANNELS 3 Zrotation Xrotation Yrotation
          End Site
          {
            OFFSET 0.134235 -1.35082 5.13018
          }
        }
      }
    }
  }
  JOINT RightUpLeg
  {
    OFFSET -5.7928 -1.72406 10.6446
    CHANNELS 3 Zrotation Xrotation Yrotation
    JOINT RightLeg
    {
      OFFSET -2.57161 -44.7178 -7.85259
      CHANNELS 3 Zrotation Xrotation Yrotation
      JOINT RightFoot
      {
        OFFSET -3.10148 -46.5936 -4.03391
        CHANNELS 3 Zrotation Xrotation Yrotation
        JOINT RightToeBase
        {
          OFFSET -0.0828122 -6.13587 12.8035
          CHANNELS 3 Zrotation Xrotation Yrotation
          End Site
          {
            OFFSET -0.131328 -1.35082 5.13018
          }
        }
      }
    }
  }
}
MOTION
Frames: 14
Frame Time: 0.03333333333333333
0.0000 93.1000 0.0000 -50.6275 -43.9581 -143.5726 -71.1540 0.6636 87.4737 86.2987 56.6176 -15.0372 5.0396 2.0974 8.4717 -156.0372 4.0449 -177.9695 -156.1584 42.0550 177.8650 -0.5597 -23.7160 -26.8128 -48.9003 32.9014 -114.1083 -1.9806 -0.2455 -96.3866 0.7262 -0.0204 -0.3997 -0.6511 2.1099 43.4252 -48.7530 -38.9213 102.9792 -15.5928 -14.6281 129.7595 0.7617 -0.2162 0.2149 -72.0321 5.1983 111.0435 -1.1783 38.8791 8.7386 -2.3028 -18.2593 -2.6913 9.5488 -20.1638 32.8830 1.0230 22.4279 87.8250 10.0136 69.0437 7.0078 -5.8897 0.7420 0.8407 -1.0558 -2.1053 2.6846 
0.0000 93.1000 0.0000 -50.9861 -44.2296 -143.8088 -71.1577 0.3007 87.4753 88.8556 57.1120 -14.6781 4.6866 3.0651 8.2288 -154.9088 6.0755 -178.0502 -152.7659 43.9101 176.2716 -0.6302 -22.2278 -27.0941 -45.5511 36.1720 -113.0039 -0.1703 -1.0264 -96.9833 0.0473 -0.1052 -0.2427 -0.9285 2.2603 43.8360 -51.1643 -41.1743 97.8965 -15.0805 -13.7539 130.8542 0.2494 -0.1318 -0.3510 -69.8098 4.9184 108.9210 -2.0066 43.0231 6.1018 -1.0106 -19.1141 -2.6333 10.2108 -21.0288 35.8715 2.8443 20.8948 87.1548 12.0972 71.1878 5.1440 -4.6772 -0.4525 0.2149 -0.5140 -2.9206 6.6097 
0.0000 93.1000 0.0000 -49.8661 -45.2632 -143.0211 -71.1777 0.6224 87.4954 90.8995 58.2270 -14.8105 4.4384 4.6606 7.2880 -152.6188 8.0805 -177.8941 -150.2540 45.4803 174.3240 -0.5222 -21.8593 -25.9285 -46.1530 37.4125 -108.8730 1.2955 -0.8673 -97.3332 -0.5179 0.1125 -0.1348 -0.6209 2.7097 44.9096 -52.8475 -40.9139 95.3555 -14.0096 -12.6996 130.6875 0.5019 -0.3454 0.3200 -69.3081 4.9308 107.9170 -2.2897 46.1011 4.0918 -1.2579 -19.2492 -3.1545 11.5084 -23.1332 36.5783 1.7003 20.1542 86.9256 12.6430 71.0164 8.2530 -2.2790 -4.1059 0.5171 0.1074 -2.5794 1.4878 
0.0000 93.1000 0.0000 -47.9585 -47.0624 -140.9635 -71.0638 0.6271 87.6891 91.9011 58.2966 -15.0520 4.8633 4.8770 7.9570 -153.2203 9.6960 -176.8531 -149.3526 46.2978 173.0839 -0.4383 -20.8239 -24.8078 -50.8017 39.0689 -102.9272 -2.0325 -0.3273 -98.8446 -0.1263 0.0725 -0.4831 -0.7614 2.7862 44.0822 -52.9121 -40.2949 95.0953 -13.1989 -11.8504 129.7379 0.5027 -0.2121 0.5121 -69.2741 6.0118 107.0869 -2.0292 47.1598 3.2757 -0.9259 -18.8242 -3.0500 13.1971 -22.7703 35.9046 1.6881 18.1228 86.1837 13.9561 72.4261 5.7278 -1.4207 -6.8767 0.4614 -0.6471 0.6925 3.8801 
0.0000 93.1000 0.0000 -46.0168 -49.2396 -138.9248 -70.9209 1.0524 87.7699 93.9786 58.9267 -16.8808 4.2493 5.1100 8.6031 -152.8292 11.3308 -175.4749 -148.1717 46.9878 173.0867 0.1072 -20.0511 -23.5501 -57.9338 39.9296 -93.8713 -1.8314 0.0162 -100.8317 0.5237 -0.5155 -0.5779 -0.9746 2.8483 43.6964 -55.0125 -37.9498 96.2736 -12.1979 -10.2852 128.5273 0.7748 0.5073 0.2399 -68.9238 6.3181 106.3493 -2.6193 46.2574 3.8902 -0.9059 -19.7301 -2.7068 13.1249 -22.6220 34.9898 1.9227 15.8300 86.7644 14.4350 72.8830 5.9022 -2.9691 -5.2892 0.7358 0.4767 -2.4022 -0.1374 
0.0000 93.1000 0.0000 -43.8339 -52.0725 -136.6888 -71.0365 1.0212 87.8281 93.7185 59.0992 -15.4418 4.0087 6.2200 9.0296 -151.6659 12.4183 -175.6963 -146.8268 48.3358 172.5577 0.2189 -18.0607 -21.8547 -65.6183 37.9637 -88.9883 0.4213 -1.0541 -102.8621 0.5233 -0.1367 -0.3980 -0.6593 2.5664 43.0990 -59.6957 -36.0982 94.3299 -12.7198 -11.1107 127.7350 0.7804 0.0820 0.4708 -69.9775 8.1461 107.1529 -2.4438 44.9694 4.7977 -1.1431 -20.5417 -3.1730 12.0833 -23.2762 33.1598 0.7907 15.7172 86.8705 13.5660 73.2420 3.8255 -3.0447 -8.0089 1.1373 1.0115 -0.7356 -1.8717 
0.0000 93.1000 0.0000 -36.9882 -55.5481 -129.7914 -71.1561 1.0701 87.9265 91.7885 60.1613 -13.9343 4.3801 7.2758 9.2338 -149.8064 14.1084 -175.5878 -147.2010 50.2411 171.2217 0.5082 -17.1183 -20.7833 -71.9000 35.8934 -87.9718 -1.2229 -0.1118 -104.9803 0.0983 -0.2748 -0.0595 -0.7844 3.0248 42.9224 -64.9634 -35.9867 93.0061 -12.3296 -10.4805 127.9629 0.5769 0.2865 0.2642 -69.1165 9.9235 106.1940 -1.9202 42.7797 4.4720 -1.1591 -22.0096 -2.9580 11.2894 -21.8749 30.6500 -0.6254 13.6777 87.9675 11.9883 72.4958 3.1485 -3.1407 -10.1808 1.1658 0.2302 -0.8321 -4.1092 
0.0000 93.1000 0.0000 -28.8318 -59.0266 -120.6464 -71.1551 0.9278 87.9379 90.8582 61.0767 -11.9678 5.3182 6.9887 9.3862 -147.8487 16.1904 -177.1973 -146.5616 52.0543 171.0882 0.6747 -15.6702 -18.9154 -78.3186 33.8974 -88.7760 -0.7650 0.1278 -107.8841 -0.1848 -0.1403 -0.0897 -0.7730 3.0741 42.6595 -71.7987 -34.0050 90.0685 -11.6826 -10.0932 127.7045 0.7586 0.1572 0.1315 -67.3563 12.0018 105.2578 -2.1300 42.2072 5.0447 -0.9497 -21.1032 -2.8291 10.6880 -21.6353 28.6125 -1.3577 11.0086 88.1338 10.8655 71.2310 1.2317 -4.3039 -12.9709 1.2238 1.1584 -1.9654 -6.9870 
0.0000 93.1000 0.0000 -18.3694 -61.6825 -109.9251 -71.2702 1.2805 88.0531 90.8639 61.3907 -9.6311 5.5386 8.0040 9.8022 -145.7342 18.3715 -178.5186 -144.4396 54.0796 171.0030 0.9921 -15.8254 -18.1860 -82.7395 31.4900 -90.7722 0.3677 -1.1382 -109.0412 -0.1382 -0.1692 -0.0630 -0.5484 2.9581 42.1120 -77.9794 -32.3258 88.2049 -10.9383 -8.2853 128.0730 0.2774 0.2369 0.4924 -64.9748 13.6317 105.3927 -2.2142 40.6057 4.9973 -1.4966 -20.8980 -2.7671 9.1714 -19.6939 25.1691 -3.6558 7.1525 87.3689 8.9613 68.2567 1.0562 -4.9633 -15.0765 1.8243 0.9554 -6.7568 -12.0859 
0.0000 93.1000 0.0000 -5.6402 -63.2583 -96.6145 -71.1568 0.4057 88.0795 89.0260 62.2368 -8.7816 5.2262 8.1351 11.7688 -143.8202 21.2082 -176.4434 -146.6908 57.2239 172.8238 0.4703 -14.8432 -17.9680 -87.2391 32.0126 -94.9076 2.0606 -0.6389 -109.0379 0.1381 0.1662 0.0541 -0.8966 3.0259 40.2357 -84.9794 -31.6989 87.1094 -8.8877 -6.9943 126.8523 -0.2571 -0.0716 0.3135 -63.1144 14.3088 106.2221 -2.2581 39.9471 3.8873 -3.7509 -19.4784 -2.2914 8.5520 -19.1522 24.6467 -5.5251 2.1498 85.9488 6.7933 66.3317 1.1888 -5.7866 -16.7630 1.5946 2.0187 -10.7573 -18.9484 
0.0000 93.1000 0.0000 6.3805 -63.9378 -83.7810 -71.1794 0.2593 87.9824 89.8679 62.9015 -7.8908 4.3896 8.9121 11.6017 -142.9346 23.1514 -178.6363 -146.5047 59.1713 172.2351 0.2970 -14.9346 -17.9831 -90.7769 34.1597 -98.7782 2.5678 -1.9190 -110.1537 0.1272 0.2105 0.1253 -1.1227 3.6662 39.8870 -91.5572 -29.4625 85.9633 -8.1087 -6.3635 126.1504 0.0773 -0.0286 0.4671 -61.3274 15.6775 107.8870 -2.2625 40.2940 -0.1585 -3.0098 -18.4142 -2.3308 8.9638 -19.6020 28.7286 -7.4581 -3.2509 83.9432 5.7989 63.4286 2.2187 -6.4980 -16.5182 1.7432 2.5623 -17.1260 -23.7658 
0.0000 93.1000 0.0000 15.4206 -64.5897 -75.0853 -71.2663 -1.4646 88.0163 92.9700 64.3651 -9.2464 2.6133 10.1692 10.9803 -140.7957 24.0039 -179.8085 -146.5429 60.4393 173.0696 -0.8447 -14.6857 -17.2009 -90.8888 33.7843 -102.9763 2.1594 -1.9457 -111.0601 -0.0994 0.3146 -0.3348 -2.4111 3.8268 39.1101 -97.0184 -27.2408 86.3456 -6.7871 -4.8810 123.8302 -0.6710 -0.2728 -0.3453 -60.1495 15.9007 111.9461 -1.8728 40.7033 -1.0146 -3.3505 -17.2689 -1.4227 9.6476 -21.2118 28.7536 -10.4288 -8.0601 79.8921 4.7958 60.3149 4.0808 -6.2545 -15.7520 0.1345 1.3365 -21.2462 -22.6997 
0.0000 93.1000 0.0000 22.9282 -64.3526 -66.8858 -71.3361 0.4564 87.8982 93.5740 66.3747 -8.2016 2.2800 11.8226 11.3207 -137.9853 25.0099 178.2549 -142.6388 61.4111 171.0585 0.3394 -14.6522 -17.9297 -92.1628 34.1895 -104.8442 1.8496 -2.3377 -110.3141 0.1000 0.1696 -0.5164 -0.8495 4.1677 37.0672 -101.9889 -27.9431 86.9244 -5.5611 -4.3263 122.8470 1.0413 -0.1555 0.5407 -58.7802 15.0353 114.5186 -2.1785 41.3216 -0.3728 -3.9180 -15.7515 -2.6920 10.6286 -20.5404 25.6135 -13.5447 -12.3712 76.0934 5.0342 56.3246 5.8026 -5.7935 -14.5203 2.1771 2.5032 -23.6857 -23.1318 
0.0000 93.1000 0.0000 30.2758 -62.8918 -58.8872 -71.4012 -1.3128 87.9241 91.8113 66.3384 -5.1208 1.8307 12.9990 10.8901 -138.9815 26.5292 179.5290 -147.0927 62.9351 174.8049 -1.1354 -15.7462 -18.8119 -94.6350 35.3782 -105.9154 1.6358 -2.0121 -110.9296 0.2365 0.9118 -0.2445 -1.4762 4.4075 33.3544 -105.9073 -29.2150 87.0984 -4.7330 -2.7468 122.0304 0.2895 -1.0558 0.0294 -59.1767 13.4541 115.0978 -1.8532 39.8639 -0.1601 -4.1277 -14.5601 -2.1824 10.8318 -22.2715 24.9480 -16.5759 -15.6811 72.0287 3.9810 52.5064 7.4969 -4.4669 -12.7579 0.7224 1.3830 -24.4447 -20.6569 
